<svg clip-rule="evenodd" fill-rule="evenodd" stroke-linejoin="round" stroke-miterlimit="2" viewBox="0 0 48 48" xmlns="http://www.w3.org/2000/svg">
 <linearGradient id="a" x2="1" gradientTransform="matrix(0 -31.2259 31.2259 0 511.349 39.5416)" gradientUnits="userSpaceOnUse">
  <stop stop-color="#f69310" offset="0"/>
  <stop stop-color="#f3ca71" offset="1"/>
 </linearGradient>
 <path d="m45.841 11.91c0-2.072-1.679-3.75-3.75-3.75h-36.183c-2.07 0-3.75 1.678-3.75 3.75v24.185c0 2.07 1.68 3.75 3.75 3.75h36.183c2.071 0 3.75-1.68 3.75-3.75z" fill="#e49f34"/>
 <path d="m45.841 15.489c0-.995-.395-1.948-1.098-2.652-.704-.703-1.657-1.098-2.652-1.098h-19.185c-.924 0-1.815-.341-2.502-.958-.576-.516-1.285-1.151-1.861-1.668-.688-.616-1.579-.957-2.503-.957h-10.131c-.995 0-1.948.395-2.652 1.098-.703.703-1.098 1.657-1.098 2.652v24.189c0 2.07 1.679 3.75 3.75 3.75h36.182c2.071 0 3.75-1.68 3.75-3.75z" fill="url(#a)"/>
 <path transform="translate(1.04918 -.110441)" d="m21.737 21.879-1.02 1.161c-.1.167-.255.295-.437.363l-2.728.568c-.447.167-2.104 1.244-2.271.799-.076-.203.378-.769.448-.958.084-.225 1.162-.425 1.405-.516l2.76-1.366s1.514-2.539 1.792-3.108c.079-.163.443-.456.443-.456l.276-.066.321 2.458.468-2.648 1.027-.247c.257-.063.641.064.793.169l3.187 2.188c.166.113.288.281.342.474l.683 3.523c.061.217.125.545.126.844 0 .333.492 1.04.251 1.109-.252.072-1.075-.259-1.173-.62-.079-.295-.017-1.01-.076-1.216l-.983-2.792-1.784-.604.012 5.256.294 3.728 2.824 3.766c.354.407.769.567.361.92-.204.178-.624.717-.98 1.233-.237.341-1.735.295-2.077.25-.292-.038-.091-.242-.173-.337l1.096-.377.381-1.136-3.12-3.28c-.137-.158-.219-.356-.236-.564l-.685-3.155-.279.004-1.91 3.038-2.257 4.634c-.114.528.122 1.307-.406 1.193-.219-.047-1.285-.266-2.104-.502-.52-.149-.823-.575-1.1-.744-.337-.206-.11-.517.045-.618l1.317.346 1.224-.31 1.748-4.912c.031-.144.093-.279.183-.394l2.25-4.154c.005-.007.01-.014.016-.02zm1.158-7.391c.881-.283 1.634-.091 1.7.659.074.828-.616 1.753-1.434 2.308-.766.519-1.112.035-1.396-.746-.181-.498-.307-1.079-.09-1.405.195-.29.903-.713 1.22-.816z" fill="#aa6c0c"/>
</svg>
